<?xml version="1.0" encoding="UTF-8"?><svg id="Camada_2" xmlns="http://www.w3.org/2000/svg" viewBox="0 0 39.02 39.02"><defs></defs><g id="Camada_4"><path id="Arcana" d="M3.26,22.48c.17.11.22.34.1.51l-1.83,2.66c-.17.25-.55.19-.64-.09C.43,24.12.12,22.61,0,21.06c-.02-.3.31-.5.56-.33l2.7,1.75M10.12,33.1l-3.15.67c-.29.06-.39.44-.16.63,1.16.99,2.44,1.85,3.81,2.55.27.14.58-.09.52-.39l-.59-3.17c-.04-.2-.23-.33-.43-.29M10.62,2.07c-1.37.7-2.65,1.56-3.81,2.55-.23.19-.13.57.16.63l3.15.67c.2.04.39-.09.43-.29l.59-3.17c.05-.29-.26-.53-.52-.39M5.64,28.47l-3.17-.59c-.3-.05-.53.26-.39.52.7,1.37,1.56,2.65,2.55,3.81.19.23.57.13.63-.16l.67-3.15c.04-.2-.09-.39-.29-.43M33.38,10.55l3.17.59c.3.05.53-.26.39-.52-.7-1.37-1.56-2.65-2.55-3.81-.19-.23-.57-.13-.63.16l-.67,3.15c-.04.2.09.39.29.43M37.49,13.37l-1.83,2.66c-.12.17-.07.4.1.51l2.7,1.75c.25.16.58-.03.56-.33-.12-1.56-.43-3.06-.89-4.5-.09-.28-.47-.34-.64-.09M5.92,10.12l-.67-3.15c-.06-.29-.44-.39-.63-.16-.99,1.16-1.85,2.44-2.55,3.81-.14.27.09.58.39.52l3.17-.59c.2-.04.33-.23.29-.43M3.37,16.03l-1.83-2.66c-.17-.25-.55-.19-.64.09C.43,14.9.12,16.41,0,17.96c-.02.3.31.5.56.33l2.7-1.75c.17-.11.22-.34.1-.51M22.48,35.76l-1.75,2.7c-.16.25.03.58.33.56,1.56-.12,3.06-.42,4.5-.89.29-.09.34-.47.09-.64l-2.66-1.83c-.17-.12-.4-.07-.51.1M33.1,28.9l.67,3.15c.06.29.44.39.63.16.99-1.16,1.85-2.44,2.55-3.81.14-.27-.09-.58-.39-.52l-3.17.59c-.2.04-.33.23-.29.43M35.65,22.99l1.83,2.66c.17.25.55.19.64-.09.46-1.43.77-2.94.89-4.5.02-.3-.31-.5-.56-.33l-2.7,1.75c-.17.11-.22.34-.1.51M32.21,4.62c-1.16-.99-2.44-1.85-3.81-2.55-.27-.14-.58.09-.52.39l.59,3.17c.04.2.23.33.43.29l3.15-.67c.29-.06.39-.43.16-.63M16.03,35.66l-2.66,1.83c-.25.17-.19.55.09.64,1.43.46,2.94.77,4.5.89.3.02.5-.31.33-.56l-1.75-2.7c-.11-.17-.34-.22-.51-.1M17.96,0c-1.56.12-3.06.43-4.5.89-.29.09-.34.47-.09.64l2.66,1.83c.17.12.4.07.51-.1l1.75-2.7c.16-.25-.03-.58-.33-.56M25.55.89C24.12.43,22.61.12,21.06,0c-.3-.02-.5.31-.33.56l1.75,2.7c.11.17.34.22.51.1l2.66-1.83c.25-.17.19-.55-.09-.64M28.47,33.38l-.59,3.17c-.05.29.26.53.52.39,1.37-.7,2.65-1.56,3.81-2.55.23-.2.13-.57-.16-.63l-3.15-.67c-.2-.04-.39.09-.43.29"/></g></svg>