<?xml version="1.0" encoding="UTF-8"?><svg id="Camada_2" xmlns="http://www.w3.org/2000/svg" viewBox="0 0 39.02 39.02"><defs></defs><g id="Camada_4"><path id="Universal" d="M8.09,6.57c-.1.09-.24.09-.35.01l-1.38-1.08c-.13-.1-.14-.3-.02-.41,1.41-1.29,3.02-2.38,4.76-3.21.15-.07.33.01.38.17l.48,1.69c.04.13-.02.26-.14.32-1.36.68-2.61,1.53-3.74,2.52M13.8,3.22c1.46-.51,3.02-.83,4.64-.93.13,0,.24-.11.25-.24l.21-1.74c.02-.17-.11-.31-.28-.3-2.06.09-4.03.5-5.87,1.18-.16.06-.22.24-.14.39l.87,1.52c.07.11.2.16.32.12M3.95,12.03c.69-1.43,1.57-2.76,2.62-3.94.09-.1.09-.24.01-.35l-1.08-1.38c-.1-.13-.3-.14-.41-.02-1.35,1.48-2.47,3.16-3.32,4.99-.07.15.01.33.18.37l1.69.46c.13.03.26-.03.31-.14M32.45,8.09c.99,1.13,1.84,2.38,2.52,3.74.06.12.19.18.32.14l1.69-.48c.16-.05.24-.23.17-.38-.83-1.75-1.92-3.35-3.21-4.76-.11-.12-.31-.11-.41.02l-1.08,1.38c-.08.1-.08.25.01.35M2.28,18.44c.09-1.54.39-3.02.86-4.43.04-.12,0-.26-.12-.32l-1.54-.85c-.15-.08-.33-.01-.39.14C.47,14.76.09,16.65,0,18.62c0,.17.14.3.3.28l1.74-.21c.13-.02.23-.12.24-.25M37.45,12.61l-1.52.87c-.11.06-.16.2-.12.32.51,1.46.84,3.02.93,4.64,0,.13.11.24.24.25l1.74.21c.17.02.31-.11.31-.28-.09-2.06-.5-4.03-1.18-5.87-.06-.16-.24-.22-.39-.14M27,3.95c1.43.69,2.76,1.57,3.94,2.62.1.09.24.09.35.01l1.38-1.08c.13-.1.14-.3.02-.41-1.47-1.35-3.15-2.47-4.99-3.32-.15-.07-.33.02-.37.18l-.46,1.69c-.03.13.03.26.14.31M20.58,2.28c1.54.09,3.02.39,4.43.86.12.04.26,0,.32-.12l.85-1.54c.08-.15.01-.33-.14-.39C24.26.47,22.37.09,20.4,0c-.17,0-.3.14-.28.3l.21,1.74c.02.13.12.23.25.24M3.22,25.22c-.51-1.47-.84-3.02-.93-4.64,0-.13-.11-.24-.24-.25l-1.74-.21c-.17-.02-.31.11-.3.28.09,2.06.5,4.03,1.18,5.88.06.16.24.22.39.14l1.52-.87c.11-.07.16-.2.12-.32M6.57,30.93c-1-1.13-1.84-2.38-2.52-3.74-.06-.12-.19-.18-.32-.14l-1.69.48c-.16.05-.24.23-.17.38.83,1.75,1.92,3.35,3.21,4.76.11.12.31.11.41-.02l1.08-1.38c.08-.1.08-.25-.01-.35M30.93,32.45c-1.13.99-2.38,1.84-3.74,2.52-.12.06-.18.19-.14.32l.48,1.69c.05.16.23.24.38.17,1.75-.83,3.35-1.92,4.76-3.21.12-.11.11-.31-.02-.41l-1.38-1.08c-.1-.08-.25-.08-.35.01M36.74,20.58c-.09,1.54-.39,3.02-.86,4.43-.04.12,0,.26.12.32l1.54.85c.15.08.33.01.39-.14.63-1.78,1.01-3.67,1.1-5.64,0-.17-.14-.3-.3-.28l-1.74.21c-.13.02-.23.12-.24.25M35.07,26.99c-.69,1.44-1.57,2.76-2.62,3.94-.09.1-.09.24-.01.35l1.08,1.38c.1.13.3.14.41.02,1.35-1.48,2.47-3.16,3.32-4.99.07-.15-.01-.33-.18-.37l-1.69-.46c-.13-.03-.26.03-.31.14M12.03,35.07c-1.44-.69-2.76-1.57-3.94-2.62-.1-.09-.24-.09-.35-.01l-1.38,1.08c-.13.1-.14.3-.02.41,1.48,1.35,3.16,2.47,4.99,3.32.15.07.33-.01.37-.18l.46-1.69c.03-.13-.03-.26-.14-.31M18.44,36.74c-1.54-.09-3.02-.39-4.43-.86-.12-.04-.26,0-.32.12l-.85,1.54c-.08.15-.01.33.14.39,1.78.63,3.67,1.01,5.64,1.1.17,0,.3-.14.28-.3l-.21-1.74c-.02-.13-.12-.23-.25-.24M25.22,35.81c-1.47.51-3.02.84-4.64.93-.13,0-.24.11-.25.24l-.21,1.74c-.02.17.11.31.28.3,2.06-.09,4.03-.5,5.87-1.18.16-.06.22-.24.14-.39l-.87-1.52c-.07-.11-.2-.16-.32-.12"/></g></svg>