<?xml version="1.0" encoding="UTF-8"?><svg id="Camada_2" xmlns="http://www.w3.org/2000/svg" viewBox="0 0 9.07 10.84"><defs></defs><g id="Camada_2-2"><path id="abjuracao" d="M7.17,4.01l-.43-1.46c-.03-.1.06-.19.15-.16.26.08.45.15.55.18.05.02.08.07.08.13,0,.35-.05.8-.11,1.29-.02.14-.2.16-.24.02M6.79,6.91c-.35.95-1.87,1.87-2.19,2.05-.04.02-.08.02-.12,0-.18-.1-.75-.45-1.28-.9-.1-.08-.03-.25.09-.23l1.2.16s.06,0,.08-.02l1.6-1.1s.02-.01.03-.02l.57-.71c.08-.11.25-.01.21.12-.06.24-.13.46-.2.65M1.95,5.65c-.22-1.03-.38-2.24-.4-2.96,0-.06.03-.11.08-.13.24-.09.96-.34,1.92-.54.12-.03.2.14.11.22l-1.43,1.38s-.04.06-.04.1v1.89c0,.16-.21.18-.24.03M4.52,0C2.27.29.48.93.08,1.08.03,1.1,0,1.15,0,1.21c.02,1.6.54,4.88,1.12,6.47.54,1.49,2.95,2.92,3.36,3.15.04.02.08.02.12,0,.4-.23,2.82-1.66,3.36-3.15.58-1.59,1.1-4.87,1.12-6.47,0-.06-.03-.1-.08-.12C8.59.93,6.8.29,4.55,0c0,0-.02,0-.03,0"/></g></svg>