<?xml version="1.0" encoding="UTF-8"?><svg id="Camada_2" xmlns="http://www.w3.org/2000/svg" viewBox="0 0 39.02 39.02"><defs></defs><g id="Camada_4"><path id="Divina" d="M17.99,2.48c.12.12.05.34-.13.35-1.19.09-2.35.31-3.46.65-.17.05-.32-.11-.26-.27L15.32.2c.06-.14.24-.18.34-.07l2.33,2.36M11.45,4.3l-2.92-1.22c-.14-.06-.29.05-.29.2l.07,3.1c0,.17.2.27.34.16.87-.71,1.81-1.33,2.82-1.85.15-.08.14-.31-.02-.38M24.68,3.34l-1.31-3.21c-.06-.14-.24-.17-.34-.07l-2.34,2.45c-.12.13-.04.33.13.35,1.25.12,2.45.38,3.6.75.17.05.32-.11.26-.28M36.23,18.3l2.66-2.64c.11-.11.07-.29-.07-.34l-3.47-1.35c-.16-.06-.33.09-.27.26.42,1.25.69,2.57.8,3.94.01.18.23.25.35.13M30.47,6.69l.02-3.61c0-.15-.15-.25-.29-.19l-3.23,1.42c-.16.07-.17.29-.01.37,1.14.6,2.21,1.33,3.17,2.16.13.12.34.02.34-.16M6.13,8.54l-3.04-.02c-.15,0-.25.15-.19.29l1.21,2.75c.07.16.29.17.38.01.52-.96,1.12-1.86,1.81-2.69.11-.14.02-.34-.16-.34M38.96,23.03l-2.71-2.59c-.13-.12-.34-.04-.35.14-.09,1.37-.34,2.69-.73,3.95-.05.17.12.32.28.25l3.45-1.41c.14-.06.17-.24.07-.34M34.51,11.95l1.43-3.41c.06-.14-.05-.29-.2-.29l-3.65.08c-.17,0-.27.21-.15.34.85,1,1.59,2.11,2.19,3.29.08.16.31.15.38-.02M2.88,14.53L.13,15.65c-.14.06-.17.24-.07.34l2.14,2.04c.13.12.33.04.35-.13.1-1.07.31-2.12.6-3.12.05-.17-.12-.32-.28-.25M27.23,34.57l3.26,1.37c.14.06.29-.05.29-.2l-.08-3.61c0-.18-.21-.27-.35-.15-.96.85-2.01,1.6-3.14,2.22-.15.08-.14.31.02.37M20.98,36.48l2.39,2.41c.11.11.29.07.34-.07l1.26-3.24c.06-.16-.09-.33-.26-.27-1.15.4-2.35.68-3.6.82-.17.02-.25.23-.13.35M32.28,30.47l3.66.02c.15,0,.25-.15.19-.29l-1.49-3.39c-.07-.16-.3-.17-.38,0-.58,1.2-1.3,2.32-2.14,3.33-.11.13-.01.34.16.34M2.23,21.28L.13,23.36c-.11.11-.07.29.07.34l2.77,1.07c.16.06.33-.09.27-.26-.31-1-.53-2.04-.66-3.11-.02-.17-.23-.25-.35-.13M14.43,35.9l1.22,3c.06.14.24.17.34.07l2.3-2.4c.12-.13.04-.34-.14-.35-1.2-.07-2.36-.27-3.48-.59-.17-.05-.32.12-.25.28M8.54,32.84l-.02,3.1c0,.15.15.25.29.19l2.9-1.28c.16-.07.17-.3.01-.38-1.01-.51-1.97-1.11-2.85-1.81-.14-.11-.33,0-.33.16M4.24,27.72l-1.16,2.77c-.06.14.05.29.2.29l3.05-.07c.18,0,.27-.21.15-.35-.7-.82-1.32-1.71-1.86-2.66-.08-.15-.31-.14-.37.02"/></g></svg>