<?xml version="1.0" encoding="UTF-8"?><svg id="Camada_2" xmlns="http://www.w3.org/2000/svg" viewBox="0 0 9.07 10.69"><defs></defs><g id="Camada_2-2"><path id="evocacao" d="M9.02,9.88c.06,0,.07.09.01.11-.33.13-1.03.38-2.1.7-.09.03-.16-.09-.08-.15.5-.39,1.4-1.14,2.14-1.98.03-.03.08,0,.06.04-.18.31-.43.76-.63,1.11,0,0,.23.12.59.17M4.77,8.21s-.08-.04-.08,0c0,.38,0,.94.08,1.36,0,0-.5-.16-.9-.33-.08-.03-.15.07-.08.13.34.32.9.83,1.5,1.21.06.04.14-.02.12-.09-.15-.4-.46-1.3-.64-2.29M8.77,5.62c-2.09-1.14-4.72-1.23-4.72-1.23,1.7-.62,3.82-.95,4.6-1.06.17-.02.3-.19.29-.38-.03-.86.07-2.02.13-2.58.02-.18-.1-.33-.26-.34C4.69-.17.94.63.04.84c-.06.01-.06.1,0,.12l.69.24c.06.02.12.02.18,0C3.92.39,7.84.63,7.84.63,5.23.95,1.57,2.43.53,2.87c-.15.06-.23.26-.17.43.29.83.91,2.86,1.15,3.65.05.17.21.28.37.24,1.67-.43,3.2-.33,4.3-.18-.08,1.41-.28,2.83-.22,3.53,0,.09.12.11.15.02.45-1.62,2.18-3.66,2.76-4.42.12-.16.08-.41-.09-.51"/></g></svg>