<?xml version="1.0" encoding="UTF-8"?><svg id="Camada_2" xmlns="http://www.w3.org/2000/svg" viewBox="0 0 9.07 13.32"><defs></defs><g id="Camada_2-2"><path id="transmutacao" d="M6.06,3.66c1.72.17,3.01.65,3.01,1.16,0,.15-.04.53-.15,1.03-.06.28-.26.52-.53.62-.7.26-1.98.52-3.81.52-1.95,0-3.27-.29-3.94-.57-.26-.11-.45-.34-.51-.61-.12-.61-.13-1.02-.13-1.02,0-.46.99-.85,2.44-1.05.09-.01.18.06.17.16h0c0,.08-.06.14-.13.15-1.11.15-1.85.43-1.85.74,0,.48,1.75.87,3.91.87s3.91-.39,3.91-.87c0-.36-1-.68-2.43-.81-.12-.01-.18-.15-.11-.24,0,0,0,0,.01-.01.03-.04.09-.07.14-.06M8.49,7.23c.04-.1-.05-.21-.16-.17-.97.31-2.39.46-3.75.46s-2.89-.16-3.86-.5c-.11-.04-.21.07-.16.17.28.67,1.29,2.01,1.74,2.45.55.18,1.33.32,2.29.32.88,0,1.61-.11,2.15-.27.58-.58,1.49-1.81,1.76-2.46M2.59,11.46c.52.14,1.19.23,1.99.23s1.42-.09,1.93-.21c.09-.02.13-.13.08-.21-.13-.2-.23-.46-.19-.77,0-.09-.07-.16-.16-.15-.52.1-1.09.14-1.65.14-.6,0-1.21-.05-1.75-.16-.09-.02-.18.06-.16.15.04.31-.03.57-.16.77-.05.08,0,.18.08.21M7.21,11.8c-.7.27-1.67.41-2.63.41-.01,0-.02,0-.03,0-.01,0-.02,0-.03,0-.96,0-1.93-.14-2.63-.41-2.14.21-2.36,1.51,2.65,1.51h.02c5.01,0,4.79-1.31,2.66-1.51M3.18,1.81c1.48.98.58,1.43.39,1.74-.66,1.08.34,1.36.78,1.43.06,0,.1-.06.06-.11-.51-.64.66-.92,1.27-1.46.06-.05.11-.1.15-.16.56-.68-.6.16.02-.58.63-.74-.75-.97-1.17-1.62-.3-.47.88-.8,1.28-.95.16-.06.07-.09-.01-.09-1.14,0-2.56,0-3.18,0-.52,0-1.31.67.41,1.81"/></g></svg>