<?xml version="1.0" encoding="UTF-8"?><svg id="Camada_2" xmlns="http://www.w3.org/2000/svg" viewBox="0 0 7.42 9.59"><defs></defs><g id="Camada_3"><path id="duracao" d="M7.01,8.66c.22,0,.41.09.41.2v.53c0,.11-.18.2-.41.2H.41c-.22,0-.41-.09-.41-.2v-.53c0-.11.18-.2.41-.2h6.61M7.01,0H.41c-.22,0-.41.09-.41.2v.53c0,.11.18.2.41.2h6.61c.22,0,.41-.09.41-.2V.2c0-.11-.18-.2-.41-.2M1.74,6.68h3.94v-.23c-.17-.22-.69-.75-1.97-.75s-1.8.54-1.97.75v.23ZM.43,6s.34-.73,1.27-1.2c-.93-.47-1.25-1.16-1.27-1.21l-.05-.12-.03-1.51c0-.2.17-.37.38-.37h5.97c.21,0,.38.17.38.37l-.03,1.51-.05.12s-.34.74-1.27,1.21c.93.47,1.25,1.16,1.27,1.2l.05.12.03,1.51c0,.2-.17.37-.38.37H.72c-.21,0-.38-.17-.38-.37l.03-1.51.05-.12"/></g></svg>