<?xml version="1.0" encoding="UTF-8"?><svg id="Camada_2" xmlns="http://www.w3.org/2000/svg" viewBox="0 0 9.07 11.23"><defs></defs><g id="Camada_2-2"><path id="convocacao" d="M4.54,9.37c-.49,0-.95-.11-1.22-.19-.14-.04-.23-.19-.21-.34.17-.96.42-1.99.63-2.78.03-.1,0-.21-.08-.28-.23-.21-.38-.51-.38-.87,0-.71.56-1.47,1.25-1.47s1.25.76,1.25,1.47c0,.36-.15.66-.38.87-.08.07-.1.18-.08.28.21.78.47,1.81.63,2.77.03.15-.06.3-.21.34-.28.08-.75.19-1.22.19M9.03,4.31c-.11-.22-.3-.58-.57-.97l.27-1.24-1.03.31c-.1-.1-.21-.21-.33-.31h0v-.64c0-.12-.12-.19-.22-.13l-.47.26h0c-.35-.22-.74-.39-1.17-.5L4.65.05c-.06-.07-.16-.07-.22,0l-.86,1.02c-.43.11-.82.29-1.17.5h0s-.47-.26-.47-.26c-.1-.06-.22.02-.22.13v.64h0c-.11.1-.22.21-.33.31l-.79-.24c-.11-.03-.21.07-.18.18l.22.99c-.27.4-.47.75-.57.97-.07.14-.06.3.02.43,1.34,2.1,1.03,4.37.81,5.3-.06.24.09.48.33.53l3.24.65c.05.01.11.01.16,0l3.24-.65c.24-.05.39-.29.33-.53-.21-.93-.52-3.2.81-5.3.08-.13.09-.3.02-.43"/></g></svg>