<?xml version="1.0" encoding="UTF-8"?><svg id="Camada_2" xmlns="http://www.w3.org/2000/svg" viewBox="0 0 9.07 10.25"><defs></defs><g id="Camada_2-2"><path id="Encantamento" d="M1.72,9.67s-.07-.02-.09-.04L.02,7.56c-.07-.09.02-.21.12-.18,2.23.71,4.34,1.97,5.39,2.66.11.07.03.24-.09.21-1.65-.49-3.41-.56-3.73-.57M5.23,4.59c.99-.33,1.99-1.48,1.27-2.64-.05-.08-.16-.07-.2.01-.12.25-.42.6-1.15.28-.92-.39-.8-.96-.69-1.21.03-.07-.02-.15-.1-.16-.38-.03-1.31,0-1.79.9-.42.79.42,1.39.42,1.39,0,0-.55.03-.81-.36-.06-.09-.21-.05-.21.06,0,.37.1.87.64,1.27.64.48,1.58.81,2.62.46M8.96,5.52c.54.41-1.15,1.15-1.15,1.15,0,0-.15.8-.42,1.76-.23.8-1.68-.4-1.88.06-.16.37-.27.61-.31.74-.02.07-.1.1-.16.06l-3.51-1.98s-.07-.08-.06-.13c.06-.21.19-.73.19-1.03,0-.38-.74-1.64-.83-2.34-.09-.7-.19-2.43,1.31-3.23,1.04-.55,4.01-1.02,4.97.03.96,1.05,1.28,1.93,1.28,2.5,0,.26-.76.83-.76.83,0,0,.3.78,1.33,1.57"/></g></svg>