<?xml version="1.0" encoding="UTF-8"?><svg id="Camada_2" xmlns="http://www.w3.org/2000/svg" viewBox="0 0 9.07 10.78"><defs></defs><g id="Camada_2-2"><path id="Ilusao" d="M3.89,5.69c0-.89.65-1.86.65-1.86,0,0,.65.97.65,1.86s-.65,1.86-.65,1.86c0,0-.65-.97-.65-1.86M8.36,5.59c.03.06.06.12.08.19l.18-.19-.07-.08h0s-.13-.08-.13-.08c-.02.05-.05.1-.07.15M6.22,7.7c.59-.38,1.22-1.02,1.76-2.11-.73-1.48-1.63-2.14-2.38-2.42.79.46,1.33,1.42,1.33,2.53,0,.79-.27,1.49-.71,2.01M1.09,5.59c.53,1.09,1.17,1.73,1.76,2.11-.44-.51-.71-1.22-.71-2.01,0-1.11.54-2.06,1.33-2.53-.74.28-1.65.94-2.37,2.42M.62,5.78c.03-.06.06-.13.08-.19-.02-.05-.05-.11-.07-.17l-.09.06-.1.1.18.19M4.53,7.6c.86,0,1.56-.86,1.56-1.91s-.7-1.91-1.56-1.91-1.56.86-1.56,1.91.7,1.91,1.56,1.91M8.28,4.92s.08-.1.15-.04c.23.21.61.62.61.62.05.05.05.13,0,.18l-.59.59c-.06.06-.15.04-.18-.04l-.03-.08c-.02-.06-.05-.11-.07-.17-1,1.89-2.29,2.42-3.13,2.56.37.09.88.2,1.37.22.08,0,.13.1.1.18-.18.41-.74,1.43-1.93,1.84-.02,0-.05,0-.07,0-1.19-.41-1.74-1.43-1.93-1.84-.03-.08.02-.18.1-.18.49-.02,1-.12,1.36-.22-.83-.13-2.13-.67-3.13-2.56-.02.06-.05.11-.07.17l-.03.08c-.03.08-.12.1-.18.04L.04,5.68s-.05-.13,0-.18c0,0,.33-.35.58-.58.1-.09.18,0,.18,0,.98-1.95,2.27-2.54,3.14-2.71-.36-.09-.82-.17-1.26-.19-.08,0-.13-.1-.1-.18.18-.41.74-1.43,1.93-1.84.02,0,.05,0,.07,0,1.19.41,1.74,1.43,1.93,1.84.04.08-.02.18-.1.18-.44.02-.9.11-1.26.19.86.17,2.15.76,3.13,2.71"/></g></svg>