<?xml version="1.0" encoding="UTF-8"?><svg id="Camada_2" xmlns="http://www.w3.org/2000/svg" viewBox="0 0 9.07 10.86"><defs></defs><g id="Camada_2-2"><path id="necromancia" d="M7.82,6.84c-.03.23-.45.65-.94.77-.48.11-.75.09-.97,0-.46-.19-.97-.8-1-1.17-.03-.37.48-.83.68-.88.2-.06,1.31-.09,1.71,0,.4.08.54,1.05.51,1.28M4.92,8.74c-.23.06-.39.43-.76.14-.32-.24.03-1.09.14-1.33.02-.03.06-.05.09-.03l.65.35s.03.02.03.04c.13.52.07.77-.15.83M3.16,7.61c-.22.09-.48.11-.97,0-.48-.11-.91-.54-.94-.77-.03-.23.11-1.2.51-1.28.4-.09,1.51-.06,1.71,0,.2.06.71.51.68.88-.03.37-.53.98-1,1.17M2.54,2.4c.83-.74,1.57-.74,1.37-.4-.2.34-.85,1.79-.85,1.79,0,0,.08.77,1.17.43,0,0-.4-.28,0-.68.25-.25.48-.32.62-.34.06,0,.09.06.06.1l-.11.15s.52.46.06.77c1.08.34,1.17-.43,1.17-.43,0,0-.65-1.45-.85-1.79-.2-.34.54-.34,1.37.4.83.74.34,1.68-.22,2.08-.52.36-1.47-.08-1.63-.16-.14.06-.24.05-.31.02-.24.11-1.11.48-1.59.14-.57-.4-1.05-1.34-.23-2.08M9.05,2.96c-.04-.23-.5-1.08-.73-1.39C6.74-.57,2.19-.48.75,1.57.53,1.88.07,2.72.03,2.96c-.04.24-.06,1.2.21,1.67.27.47.39.9.37,1.37-.02.47-.36,1.2-.36,1.2-.04.34.11.77.51.98.36.19,1.13.55,1.29.63.02,0,.04,0,.06,0l.2-.13s.09,0,.1.04c.02.1.05.28.04.55-.02.34-.23.57-.32.65-.02.02-.03.05-.01.08l.51.84s.03.03.06.03h3.74s.04-.01.06-.03l.51-.84s.01-.06-.01-.08c-.09-.08-.31-.31-.32-.65-.01-.27.02-.46.04-.55.01-.04.06-.06.1-.04l.2.13s.04.01.06,0c.17-.08.93-.44,1.29-.63.41-.21.56-.64.51-.98,0,0-.34-.73-.36-1.2-.02-.47.1-.9.37-1.37.27-.47.25-1.43.21-1.67"/></g></svg>